<svg width="200" height="50" xmlns="http://www.w3.org/2000/svg"><rect x="0" y="0" width="10" height="30" fill="red" /><rect x="10" y="0" width="10" height="30" fill="red" /><rect x="20" y="0" width="10" height="30" fill="red" /><rect x="30" y="0" width="10" height="30" fill="red" /><rect x="40" y="0" width="10" height="30" fill="red" /><rect x="50" y="0" width="10" height="30" fill="red" /><rect x="60" y="0" width="10" height="30" fill="red" /><rect x="70" y="0" width="10" height="30" fill="red" /><rect x="80" y="0" width="10" height="30" fill="gray" /><rect x="90" y="0" width="10" height="30" fill="gray" /><rect x="100" y="0" width="10" height="30" fill="red" /><rect x="110" y="0" width="10" height="30" fill="yellow" /><rect x="120" y="0" width="10" height="30" fill="yellow" /><rect x="130" y="0" width="10" height="30" fill="yellow" /><rect x="140" y="0" width="10" height="30" fill="yellow" /><rect x="150" y="0" width="10" height="30" fill="yellow" /><rect x="160" y="0" width="10" height="30" fill="yellow" /><rect x="170" y="0" width="10" height="30" fill="yellow" /><rect x="180" y="0" width="10" height="30" fill="yellow" /><rect x="190" y="0" width="10" height="30" fill="yellow" />
      <rect x="10" y="35" width="10" height="10" fill="red" />
      <text x="25" y="45" font-size="10">alpha-helix</text>
      <rect x="70" y="35" width="10" height="10" fill="yellow" />
      <text x="85" y="45" font-size="10">beta-strand</text>
      <rect x="140" y="35" width="10" height="10" fill="gray" />
      <text x="155" y="45" font-size="10">coil</text>
    </svg>